<?xml version="1.0" encoding="UTF-8"?>
<svg width="17px" height="15px" viewBox="0 0 17 15" version="1.1" xmlns="http://www.w3.org/2000/svg" xmlns:xlink="http://www.w3.org/1999/xlink">
    <!-- Generator: Sketch 52.2 (67145) - http://www.bohemiancoding.com/sketch -->
    <title>Icon-small-warning</title>
    <desc>Created with Sketch.</desc>
    <g id="Page-1" stroke="none" stroke-width="1" fill="none" fill-rule="evenodd">
        <g id="3_forgot-password_incorrect" transform="translate(-892.000000, -414.000000)">
            <g id="Group-2" transform="translate(520.000000, 190.000000)">
                <g id="Group" transform="translate(0.000000, 212.000000)">
                    <g id="Icon-small-warning" transform="translate(370.000000, 10.000000)">
                        <g>
                            <path d="M18.5003746,17 L2.50037961,17 C2.32137967,17 2.15737972,16.9050194 2.06737975,16.7510509 C1.97837977,16.5980821 1.97737977,16.4081209 2.06537975,16.2531526 L10.0273773,2.25601268 C10.1173772,2.09904475 10.3253772,1.97906927 10.4623771,2.00306436 C10.6413771,2.00306436 10.806377,2.09904475 10.896377,2.25401309 L18.9333745,16.251153 C19.0223745,16.4061213 19.0223745,16.5960825 18.9323745,16.7500511 C18.8433745,16.9050194 18.6783746,17 18.5003746,17 Z M3.35937934,16.0002043 L17.6363749,16.0002043 L10.4643771,3.51075629 L3.35937934,16.0002043 Z M9.99957728,13.0007132 L9.99957728,8.00047313 L10.999577,8.00047313 L10.999577,13.0007132 L9.99957728,13.0007132 Z M9.99999751,13.9975485 L10.9999972,13.9975485 L10.9999972,14.9973442 L9.99999751,14.9973442 L9.99999751,13.9975485 Z" fill="#F33A17"></path>
                            <polygon points="0 20 20 20 20 0 0 0"></polygon>
                        </g>
                    </g>
                </g>
            </g>
        </g>
    </g>
</svg>